<?xml version="1.0" encoding="UTF-8" standalone="no"?>
<svg
   id="Layer_1"
   width="5.934in"
   height="4.668in"
   viewBox="0 0 427.223 336.107"
   version="1.1"
   xmlns="http://www.w3.org/2000/svg"
   xmlns:svg="http://www.w3.org/2000/svg">
  <defs
     id="defs1" />
  <path
     d="m 172.90804,0 c -17.20016,2.1996659 6.05747,43.488827 -10.06673,25.056971 -3.18426,-22.4294659 -20.58039,0.182261 -6.96703,9.79573 10.19158,8.894973 29.51017,16.969134 29.0781,30.658717 -9.61766,-11.801923 -44.63806,-15.203672 -30.82864,7.932388 2.26008,14.04637 35.0571,11.203457 14.07761,23.126244 -13.42068,10.51805 -13.16934,33.63245 0.68996,44.10789 12.99244,13.37685 0.22463,27.71798 -0.0718,43.26557 -6.41945,16.54726 -6.45612,29.40293 -7.45923,46.69635 5.7886,23.1615 -18.14881,37.68503 -13.52534,60.50735 -0.16494,7.89172 14.80497,25.26827 1.34623,23.7166 -18.66562,-15.01052 -1.85164,-41.28231 -5.04362,-61.31597 -2.09959,-14.99459 7.87251,-27.2295 4.02845,-41.23377 -5.63656,-14.06743 2.23053,-34.31363 -9.28741,-45.54348 11.19412,-12.50135 25.41889,-37.98343 7.79469,-51.38694 C 146.37605,97.204943 132.83007,81.216512 115.26895,73.174266 102.43061,61.519693 79.661549,71.11753 69.589238,65.533392 59.697814,42.144498 22.637439,65.987994 40.102435,84.253242 c 20.216937,4.212425 0.665507,24.371938 5.096358,38.207308 -4.719877,16.75595 6.531841,30.03948 15.700708,40.61705 -6.613088,15.49009 -12.990056,29.91217 -19.228167,45.33107 -5.508643,17.05885 -4.648408,36.05734 -14.776362,51.41769 -5.43531,12.52379 -6.848092,26.47639 -5.940136,39.58723 -9.367618,4.68761 -31.744634,6.42427 -12.7504165,18.09434 18.9428635,2.29892 32.0061665,19.17945 53.4890525,12.06632 12.977642,11.49879 35.485271,7.44169 44.014138,-5.36297 14.2303,3.7529 30.95373,17.37805 46.70953,3.63586 19.04529,-0.87194 43.41197,18.20891 56.86563,-4.58365 14.88744,-0.34144 24.63777,19.69666 42.54338,9.78841 18.82535,-16.54549 33.76929,6.40019 54.55403,-0.17872 7.99303,-8.11435 20.28938,-15.0471 27.5092,-1.19242 16.05666,10.41496 30.63256,-4.76017 46.22172,-2.73056 21.31947,-1.22826 -5.6617,-29.63455 17.95665,-30.37892 20.45108,-3.71534 34.8402,-32.28365 25.58433,-50.91524 0.0449,-17.53616 -15.60134,-11.72026 -15.9556,2.51669 -2.43611,15.04881 -24.20312,25.66169 -23.87041,4.14125 -2.04407,-17.52643 -6.18306,-34.38775 -4.6232,-50.0158 -5.76889,-13.0834 -9.60096,-28.49765 -14.72948,-40.42808 -1.48731,-14.77592 25.43979,-19.69188 20.45867,-37.39722 24.2645,4.81898 26.04894,-31.756562 2.84482,-32.211499 -9.11853,-22.109917 -24.97567,-47.32581 -51.64915,-48.301871 -21.43993,-0.707957 -36.72106,16.789264 -48.15831,32.527918 -16.22995,12.589537 -5.2777,32.358372 -12.66399,47.973732 0.25657,14.18831 9.00425,24.36089 17.70615,30.43313 -3.34309,16.07706 -8.3882,32.27412 -15.24366,47.46981 -0.27629,12.19649 -3.91691,32.91603 0.91409,48.82923 -2.38616,19.13891 10.67414,41.69571 0.30177,59.41161 -3.98859,13.67594 -5.583,5.19687 -9.34894,-3.40734 12.18356,-13.20956 11.11783,-37.1528 -1.36235,-49.32583 -6.66026,-16.61519 -2.98063,-30.89687 -2.37166,-46.69928 0.43278,-15.77353 -7.335,-34.62057 -10.97643,-50.96211 -3.71313,-15.48007 13.78784,-23.91602 16.05814,-39.09356 7.03925,-15.25974 -14.91523,-27.489815 -15.70803,-35.573432 19.93276,2.31794 36.60976,-41.801379 6.60812,-30.169443 -7.07649,-2.074821 -23.2021,17.179643 -14.46727,0.758814 6.49159,-16.316126 42.28923,-20.918671 29.40038,-42.827571 -7.88684,-3.950091 -15.37461,27.6807 -14.25779,9.832352 8.11492,-8.136668 -2.97278,-37.49052 -9.3299,-17.837985 3.78601,22.390723 -13.43766,-23.388118 -14.80712,1.5410659 2.41807,6.9123021 16.25307,32.7442351 3.48937,27.8300111 -5.70471,-19.152305 -19.96597,-0.06748 -7.49732,9.835282 5.3626,18.530394 -11.2113,23.615465 -25.87438,20.189137 -22.43712,1.899928 -7.19019,-26.083884 -8.03932,-37.423587 -9.36092,-9.544452 -16.41815,24.295502 -16.83014,1.379928 2.46865,-7.035392 17.83258,-33.6721829 0.438,-27.0990298 -3.48068,11.1023758 -8.98509,14.3792118 -6.68723,0.5610535 C 177.26121,1.8218713 175.19034,-0.04572155 172.90804,0 Z m -0.0644,2.5386572 c 3.05641,4.0646718 -0.65905,24.2010178 9.55842,11.6444238 1.23347,-13.1217118 13.00225,-9.8273192 4.74918,1.618705 -11.07951,7.997814 -5.30001,40.442415 5.36589,18.859015 13.28611,-12.092454 -1.15883,13.978466 -0.15088,19.951824 4.11151,4.866563 6.72803,23.524786 -2.05378,13.838831 -0.47031,-24.990472 -41.33053,-26.728984 -35.3449,-50.651558 4.52657,2.0353 12.22326,27.374535 18.18956,12.016506 -3.07383,-7.815111 -8.34694,-21.1820362 -0.31349,-27.2777468 z m 84.99887,0.2226635 c 13.53109,5.3658814 -11.23301,42.5292113 10.41831,27.3260883 1.33483,-14.514102 13.97,-13.963988 6.59201,0.177252 -8.47653,11.878575 -27.1911,14.125735 -31.57574,29.965823 1.69778,13.227747 -16.46252,13.925418 -7.45922,1.28178 10.20704,-8.812517 -11.99406,-29.376362 0.66359,-29.47069 2.60689,17.330396 19.3717,8.742897 12.6259,-5.316091 -4.00867,-4.646402 -13.72449,-31.9046808 -2.50057,-17.5083849 1.90759,13.3603959 14.79893,9.3231549 9.30939,-2.3584755 -0.0242,-1.1055982 -0.002,-4.0735559 1.92633,-4.0973019 z m -79.4147,41.4842663 c 7.06978,8.473674 8.94832,5.565573 0,0 z m 71.46913,1.920473 c -6.1332,2.511576 -4.32896,7.048443 0,0 z m 83.80352,2.509359 c 26.11316,-0.899759 42.67857,24.667082 50.48602,46.497125 -13.09849,13.715826 -13.11064,-18.913989 -22.93873,-25.001305 -4.00275,-7.605564 -22.49995,-16.871016 -6.718,-4.53677 13.92589,13.582198 -19.59421,-11.120132 -18.03867,-4.138319 8.84237,2.075076 27.29924,15.309681 25.43052,18.829717 -20.63958,-9.681578 -44.63151,-11.143354 -66.65697,-5.805365 8.36967,-13.32475 22.06066,-25.116904 38.43583,-25.845083 z M 157.9266,58.351028 c 12.24612,-0.755727 37.87615,12.795883 23.63309,19.256 -2.6796,-11.197494 -33.66868,-16.396287 -12.07656,-7.925063 8.42986,4.26019 -14.34981,-0.668934 1.27152,4.05189 14.10001,4.644948 -9.09693,1.548929 4.01527,4.904457 7.80207,3.589339 -1.37013,1.088153 5.52264,5.323416 -11.55693,4.830029 -32.59325,-13.68561 -24.62043,-25.262056 0.68167,-0.183895 1.43806,-0.298262 2.25447,-0.348644 z m 116.6874,0.2754 c 9.38279,12.094356 -20.58026,34.5167 -23.65946,23.200953 -0.14857,-1.320313 6.54016,-3.911682 7.44604,-5.512387 -13.67929,1.10108 18.93705,-7.886612 -0.33985,-4.627593 9.48937,-4.959127 15.72576,-9.130101 1.23637,-4.504541 -3.71414,4.671155 -18.49897,17.87799 -15.06055,4.356587 C 250.44363,60.532408 263.54394,59.93787 274.614,58.626428 Z M 51.191664,58.942844 c 15.608397,-0.318085 21.632256,12.107673 5.34246,23.975881 -3.595925,7.407 -16.057616,-3.269459 -15.916048,-4.317035 -1.439491,1.58146 1.961817,-11.518643 0.323741,-10.762559 1.782959,-3.881737 3.1938,-7.204693 11.993068,-6.675511 L 49.682826,59.07029 Z M 40.618076,78.60169 c 0.01973,-0.02167 0.03995,-0.04598 0.06153,-0.07325 -0.03665,0.01191 -0.05658,0.03663 -0.06153,0.07325 z M 190.05314,61.276417 c 2.80612,9.634441 5.47721,8.419183 0,0 z m 28.50239,7.618901 c 11.18616,0.538867 26.36969,9.180112 25.69127,13.194279 -18.23742,-12.412229 -43.10845,-11.094381 -60.92045,1.418015 7.20719,-9.429552 18.97584,-14.452013 30.73782,-14.310526 1.37696,-0.290851 2.89334,-0.378749 4.49136,-0.301768 z M 87.047816,69.27326 c 11.123723,-0.909656 32.568424,6.196158 32.954204,12.937923 -6.75174,1.78394 -20.960095,-14.471151 -21.015337,-9.99935 10.828727,2.733989 17.690957,15.516077 2.042057,9.918781 -5.414451,-8.540245 -25.120474,-13.106022 -7.405025,-4.882484 13.745945,5.734252 0.779486,12.382264 -6.29171,7.318599 2.608238,3.778534 1.584657,7.139777 -7.591068,6.786842 0.826669,-6.241709 -19.029247,-14.703089 -10.159023,-16.481495 4.631324,-0.213433 11.166105,3.142734 15.237802,6.883525 -0.351588,-0.624383 -0.646725,-1.32042 -0.87454,-2.09333 -7.718689,-4.103636 -19.937877,-8.024499 -5.945995,-7.239494 7.72792,-0.463089 -8.525251,-1.143017 3.074807,-2.550376 l 2.900486,-0.417494 z m -2.2281,12.482341 c 0.666455,1.183553 1.533288,2.110067 2.512289,2.811128 -0.640491,-0.927876 -1.500797,-1.88184 -2.512289,-2.811128 z M 44.822315,70.877316 c -5.863507,6.258373 9.645584,18.179792 0.03369,6.643284 l -0.518572,-3.148052 z m 281.827565,3.555292 c 13.66362,1.461363 28.03537,3.755125 39.39973,12.2421 6.54986,9.541911 7.17264,13.006358 5.72187,25.887562 -11.46588,-5.24124 -24.54263,-11.51656 -34.31069,-12.973078 -15.42254,-3.759725 -31.11641,-3.842295 -47.2662,1.773988 -15.01881,13.7734 -7.86958,-8.291564 -6.54513,-11.824609 6.38226,-15.795271 28.63924,-14.794363 43.00042,-15.105963 z m -107.45712,2.034735 c 16.92916,0.789783 31.50176,13.662984 42.92572,25.593117 -1.62174,0.58249 13.74824,20.86031 3.05723,14.18894 3.10703,7.33737 -0.25997,23.61527 -2.67489,7.69362 1.04729,8.21198 -7.61794,16.53745 -9.04132,25.56382 -12.85751,-12.21653 0.54551,-30.50608 -2.20319,-45.44387 -7.89298,-13.486474 -0.66925,14.88137 -4.90006,20.86006 -8.51361,15.37415 12.54135,36.61648 1.88824,40.4398 -11.85926,0.61901 -23.51194,15.27434 -38.1575,11.19909 -8.72151,-3.60791 -19.69901,-10.37305 -28.11713,-11.91836 -11.17024,-3.67563 7.05932,-18.41808 3.66663,-31.3267 -2.77205,-11.94695 -3.57082,-27.54536 -3.41466,-34.376615 -11.45464,14.663495 9.68754,35.662095 -4.25844,50.272155 -2.51306,-4.64828 -11.02315,-18.50408 -12.17911,-21.27609 -5.69858,11.69993 3.013,-19.02807 -4.85172,-10.62193 2.41827,-16.54761 16.19653,-23.048273 27.85491,-34.05287 9.48235,-4.28618 17.11407,-6.570121 26.9877,-6.786843 1.14932,-0.05861 2.28898,-0.05998 3.41759,-0.0073 z m -153.202761,1.68316 c 8.520863,3.879799 20.560746,19.48156 4.177871,20.227224 -1.881784,-5.631964 -9.772761,-15.521079 -4.177871,-20.227224 z m -2.966405,3.802859 c 2.346273,8.074032 10.708719,25.507058 -1.762265,22.748298 -1.868643,-6.910353 -5.524372,-17.887909 1.762265,-22.748298 z m 57.167396,3.152447 c 12.58053,-0.680482 18.43763,9.820659 18.86048,21.939681 3.39407,-6.11525 -8.18694,-22.283894 0.72219,-8.223901 10.88104,21.011591 -17.19913,-0.57672 -26.83828,7.715581 -24.90962,4.95677 -43.238236,24.71787 -56.303108,45.23439 -20.391626,-14.09548 1.576322,-39.83455 16.613336,-50.35565 12.578044,-9.777085 28.303012,-16.005199 44.339342,-16.021518 0.89885,-0.147586 1.76734,-0.243218 2.60604,-0.288583 z m -5.30584,1.784238 c 2.92717,7.346668 10.84207,25.712553 5.02458,8.273708 -1.22301,-2.999856 -2.9049,-5.819692 -5.02458,-8.273708 z M 57.896473,87.11564 c -0.41846,8.214133 6.492525,30.69757 -4.350728,24.73616 0.177236,-12.149353 -2.575119,-11.76933 -1.129431,0.17579 3.723623,9.09597 -8.141036,14.85132 -3.813113,1.48393 1.449319,-9.03688 2.651668,-19.568351 9.293272,-26.39588 z m 67.724867,0.370618 c 2.72221,7.18148 9.79079,25.143472 4.65543,8.116964 -1.20317,-2.888782 -2.83836,-5.577254 -4.65543,-8.116964 z m -21.8972,1.07816 c 3.04953,7.248017 11.65301,25.161732 5.20623,8.074482 -1.35892,-2.911387 -3.13123,-5.623903 -5.20623,-8.074482 z m 259.09538,1.314008 c 3.76001,7.892742 5.59328,2.542001 0,0 z m -56.65761,2.42586 c -2.21322,-0.06464 -6.71279,2.701353 0.9888,0.591816 -0.0892,-0.411087 -0.47806,-0.5769 -0.9888,-0.591816 z m -213.534321,0.03223 c 3.127831,6.953469 11.718651,24.219576 5.154953,7.741956 -1.295105,-2.829112 -2.989354,-5.496317 -5.154953,-7.741956 z M 296.85545,94.41959 c -6.95344,2.140053 -4.61121,5.358906 0,0 z m -63.94398,2.314528 c -15.84907,9.798262 6.27322,1.716512 0,0 z m -34.58316,0.04248 c -10.47512,0.134247 14.40612,9.10851 1.68902,0.246102 z M 82.584292,97.325935 c 0.837638,6.461745 12.586539,25.955675 4.714021,7.992445 -1.304874,-2.80891 -2.845337,-5.5178 -4.714021,-7.992445 z M 389.7164,98.33964 c 14.12889,1.438074 14.10552,17.49553 6.71799,21.62912 -4.13952,6.56631 -21.94823,1.46398 -20.46746,-7.59546 -5.55116,-5.355 8.40893,-14.300611 12.55265,-13.339302 l -0.66652,-0.420424 z m -1.19535,0.694358 0.89651,0.565448 c -0.19056,-0.287883 -0.49825,-0.472801 -0.89651,-0.565448 z m -73.51559,1.076692 c 1.38858,-0.006 2.73983,0.0238 3.8761,0.0249 12.25287,3.2612 27.39876,0.38896 36.32199,11.85536 1.10808,13.2892 -11.90213,36.02132 4.83122,46.80622 1.33268,10.87063 -18.63916,11.60423 -28.8364,17.64755 -12.07777,-0.23429 -29.06789,-8.54766 -35.4577,-15.60842 2.85656,-9.58532 12.02556,12.69439 21.97924,4.88541 7.32362,1.86456 28.42111,-17.71178 11.95058,-8.48465 -12.34258,0.22744 -30.85021,-13.41839 -11.3617,-20.00749 5.91024,-20.29306 -35.72678,-8.53846 -13.84029,4.49282 8.68493,13.66121 -18.38342,15.21881 -12.89984,-1.55571 4.78389,-13.30331 -8.41305,-41.182837 14.67089,-37.27124 0.0923,-2.42651 4.60017,-2.76743 8.76591,-2.78476 z m 52.4021,2.30867 c 1.38502,8.0768 5.27947,5.58631 0,0 z m -294.829943,1.77106 c 1.773511,7.84646 12.555892,25.08441 4.718416,8.39529 -1.347457,-2.91627 -2.87046,-5.76228 -4.718416,-8.39529 z m 219.370453,0.24903 c -9.18823,13.21622 5.1743,35.26367 -6.09835,44.84912 -0.71077,-9.06356 -4.53584,-15.07902 -6.18037,-13.63961 -1.09689,-11.3517 -0.9831,-26.53953 12.27872,-31.20951 z m -94.1896,0.61965 c -20.54721,4.06459 10.90138,18.13463 3.24327,1.85162 l -1.41362,-1.31401 z m 35.6247,0.17871 c -20.85556,16.53658 23.03788,9.53128 0,0 z m -35.17205,2.90342 c 5.35648,3.93419 -5.74068,3.03755 0,0 z m -77.191,0.0469 c 4.77202,3.83147 21.26648,-3.10213 18.07383,12.43693 -3.79594,12.38327 14.78896,30.08364 2.858,36.20479 -2.47083,9.79283 -18.10751,-8.08159 -4.9484,-10.70103 11.58553,-23.15169 -35.39695,-6.1904 -10.04476,3.75745 8.7396,9.27928 -24.78658,26.15994 -25.74547,12.85442 4.48773,-13.69727 -4.501652,9.22209 -5.736517,-4.09291 1.126265,-7.29254 5.858687,-16.06538 -2.105049,-5.02458 -8.121574,19.50347 24.197846,16.76458 26.388556,22.92849 -16.87383,5.96913 -41.601224,-3.18009 -31.733946,-23.75615 -4.769566,-12.49108 -12.0493,-28.71816 3.796999,-34.60074 10.591437,-3.78397 16.708027,-8.74876 29.196757,-10.00667 z m 112.33961,0.0425 c 5.18886,2.55195 -4.07275,3.1697 0,0 z m 69.76546,0.11279 c -18.08277,4.42827 11.23136,18.48219 1.97907,0.54201 z m 53.5081,0.59768 c 13.02143,1.16839 31.91272,22.00315 22.84938,27.48869 -2.9763,-17.68175 -4.0967,20.53547 -8.78935,1.39165 1.23194,13.20159 -5.62335,7.49218 -5.44354,8.33523 -3.22479,24.43346 -18.88126,-13.0773 -7.43579,-23.06179 -1.78859,-7.25491 2.90309,-6.45535 -1.1807,-14.15378 z m -20.47479,0.91409 c -20.22085,16.2116 23.34723,9.28009 0,0 z m -32.49569,1.27592 c 5.63244,3.0233 -5.03904,3.53493 0,0 z m -239.514179,0.72219 c 0.625765,8.36001 13.300048,25.40885 4.365377,8.76592 -1.386171,-2.95551 -2.809567,-5.89522 -4.365377,-8.76592 z m 272.500609,1.21733 c 5.26771,3.15482 -4.91086,3.37237 0,0 z M 129.12829,114.66 c -12.87942,9.49909 10.28587,13.55159 5.02312,2.70565 -4.38841,-7.18469 0.56459,3.5609 -5.02312,-2.70565 z m 12.47649,0.7383 c 9.05428,5.07587 8.40523,9.82404 10.8109,19.42447 -6.42175,-11.9718 1.2532,21.67525 -6.98021,2.20026 -5.41521,-6.58388 -3.59923,-13.94045 -3.83069,-21.62473 z m -11.93887,2.24275 c 5.14666,3.2065 -4.406,3.20445 0,0 z m 261.31762,0.98001 c -6.90852,2.01498 -1.85772,4.78146 0,0 z m -290.57737,0.99613 c -22.137765,8.57206 16.03864,15.88388 3.08214,0.9346 l -1.75934,-0.77932 v 0.001 z m -43.656697,0.91849 c -0.365594,9.20955 14.269786,25.09971 4.259905,8.83183 -1.427237,-2.94044 -2.767965,-5.92291 -4.259905,-8.83183 z m 44.619137,1.92487 c 6.04428,3.65015 -4.808804,3.78912 0,0 z m 114.63363,2.0318 c -18.04725,-0.30797 -10.32196,16.62763 -1.33599,21.41818 -8.56621,16.71703 -28.19818,2.95237 -20.65936,-10.25131 -10.0056,6.31187 -0.55717,22.23311 8.43191,24.0418 13.20962,10.2894 37.85456,-0.86313 38.57646,-16.29692 -6.11113,-22.4039 1.13405,22.04469 -17.73251,8.75859 -20.79426,-7.21182 18.60275,-18.68979 -3.23595,-27.12394 z m -0.34279,3.00596 c 18.85371,4.67784 -2.99662,6.07154 -8.24587,4.01527 0.66535,-3.46103 5.48666,-3.86967 8.24587,-4.01527 z m 93.03966,1.24808 c 24.24095,7.26296 -22.77067,4.25738 0,0 z m -258.149058,0.58743 c 0.261515,8.51315 13.412207,25.14283 4.18373,8.77616 -1.344941,-2.94851 -2.646767,-5.92028 -4.18373,-8.77616 z m 27.144441,0.39112 c 0.870254,11.50356 14.044298,26.43616 4.416649,38.69072 -9.478263,5.3965 -11.279428,-21.45817 -10.857777,-4.53384 -2.433536,-7.83442 -17.854699,-6.78441 -6.76194,-17.71933 4.481646,13.32025 -1.519848,-8.69563 5.028973,-2.27205 -2.376903,-6.28304 5.45541,-9.55826 8.174095,-14.1655 z m 142.261487,5.91231 c 7.7621,1.34956 -4.50249,3.40019 0,0 z m -88.87791,1.14994 c 16.50135,2.7281 -20.3383,9.04384 -3.78674,0.65773 z m 207.60444,3.17442 c 5.02319,11.72371 -2.23102,6.69559 -1.35941,17.5494 6.97692,-2.99244 7.77629,-13.48339 1.35941,-17.5494 z m -94.92204,1.79595 c -1.70014,7.13056 5.02104,16.80831 0,0 z m -57.0048,1.53667 c -6.0617,10.5368 0.44214,8.85517 0,0 z m -41.69228,7.15746 c 0,0 0,0.001 0,0.001 5.6e-4,1.2e-4 0.002,-8e-5 0.003,0 0,0 0.001,0 0.001,0 0,0 0,-0.001 0,-0.001 0,0 -0.001,0 -0.001,0 0,0 -0.001,0 -0.001,0 z m 70.46715,0.90531 c 21.93792,4.22862 -3.10105,15.83098 -11.85097,5.27654 3.97956,-1.67598 7.76665,-3.87435 11.85097,-5.27654 z m 92.63242,0.63576 c 9.56326,3.19665 23.6336,11.46858 5.65155,10.80211 -1.15051,2.03609 -22.26571,-6.37762 -5.65155,-10.80211 z m -230.629605,5.85517 c -1.185655,7.09784 1.294802,7.05172 0,0 z m 53.237095,1.03568 c 14.81371,5.99483 -4.1288,11.35322 -8.36307,11.99746 -5.34057,-0.0148 -14.19917,-1.22846 -1.92047,-5.44793 4.02361,-1.26783 6.70835,-4.76045 10.28354,-6.54953 z m -65.890828,4.65543 c 5.514696,6.37671 10.390709,23.85425 0.698753,9.03105 -6.780174,-6.25333 15.279988,23.05662 -0.369153,7.31274 -4.973322,-5.1405 -3.277706,-10.74739 -0.3296,-16.34379 z M 296.14791,167.588 c 10.82785,-0.19071 34.35705,19.31695 11.91689,11.80263 -9.39361,-0.95077 23.48608,6.77823 1.39751,6.45871 21.12622,0.35396 -5.26748,11.37892 -13.19574,10.75669 8.73804,2.74234 30.89989,-9.80461 12.8471,0.76175 -20.7665,12.34275 -19.93316,-16.09496 -16.08012,-28.95212 l 2.10798,-0.74563 c 0.32088,-0.0487 0.6571,-0.0759 1.00638,-0.082 z m -118.27242,0.86282 c 8.24799,0.0688 34.39579,10.54577 22.65455,13.99118 -8.12511,-2.31677 -19.56932,-0.97735 -5.11833,0.36915 11.31365,2.27796 7.12147,4.36465 3.50695,4.80631 18.48955,1.95074 -22.06536,9.1164 -16.20024,10.21176 8.95243,0.35247 26.39599,-6.40213 8.98565,0.85257 -19.24241,10.34819 -21.03755,-16.94063 -17.53915,-29.12205 l 1.27446,-0.83206 1.69634,-0.25049 c 0.22694,-0.02 0.47371,-0.0286 0.73977,-0.0264 z m 21.04317,19.16664 c -0.84976,-0.0897 -1.82474,-0.16785 -2.93418,-0.23438 0.39594,0.33911 1.62758,0.39403 2.93418,0.23438 z m 52.60133,-18.86195 c 11.58363,7.94173 3.486,44.35553 -16.17973,29.31249 -18.21181,-5.71029 27.80476,4.08296 4.96305,-2.19295 -8.27991,0.13674 -23.24399,-8.94591 -8.73661,-8.73807 -15.29783,-0.96337 11.29719,-5.20163 5.07878,-5.20037 -9.31645,4.63602 -18.03803,-1.29334 -5.32635,-6.52756 6.21512,-3.46046 13.09298,-5.96096 20.20086,-6.65354 z m 110.20965,0.32521 c 8.85724,6.6065 5.98767,40.037 -12.05752,30.01124 -12.184,-3.87474 -10.19139,-4.9912 0.70461,-1.83844 25.98704,1.6989 -31.92651,-6.87386 -8.62381,-9.33869 11.58746,-1.85855 -16.20438,-1.7691 1.22758,-4.73599 19.91715,-4.29004 -22.34215,4.34349 -2.19441,-7.12231 6.53265,-3.37992 13.57554,-6.22555 20.94355,-6.97581 z m -65.09831,2.11237 c 6.69623,2.10248 24.06956,8.36041 8.59305,1.45171 -2.7297,-1.05272 -5.66841,-1.60559 -8.59305,-1.45171 z m -157.65311,0.14942 c 8.30156,10.13165 2.40312,40.19999 -16.31303,24.95004 -9.6043,-2.55424 26.3232,3.33616 7.46509,-0.79837 -7.96941,1.24691 -16.4941,-7.51079 -4.79166,-6.51144 -14.00174,-1.5694 11.37781,-5.40707 -4.45034,-3.89515 -8.93225,-5.11901 13.69965,-13.8545 18.08994,-13.74508 z m -60.782744,0.20216 c 11.201121,-0.37378 37.414224,18.79014 11.971095,12.27726 5.394722,2.85539 17.930489,4.08073 3.843875,5.36296 27.349184,1.97628 -32.111869,11.1505 -3.890752,8.4744 24.964586,-5.68404 -26.249665,14.12314 -15.337415,-11.75282 0.653454,-3.77939 -1.978027,-13.53553 3.413197,-14.3618 z m 105.132344,0.85843 c -9.26334,0.63747 21.43041,4.4485 2.56942,0.25635 z m 171.95191,0.56251 c -14.88056,2.03092 -4.26347,3.7929 3.36485,0.022 z m -108.23352,0.14503 c -11.19165,0.76082 -15.75593,4.47426 -1.70074,0.89651 l 3.64612,-0.75442 z m -112.08911,1.21879 c -10.69803,1.94039 -14.52285,7.06078 -1.544,1.31694 l 3.4088,-0.96683 z m -52.655532,0.48634 c -5.544051,0.25373 11.080074,2.75198 0,0 z m 132.455502,3.59192 c 12.31365,0.0142 6.91253,23.51818 -5.7204,13.32904 -1.6085,-3.32628 -3.28735,-10.91162 1.3184,-12.51603 1.66457,-0.56459 3.12817,-0.81448 4.402,-0.81301 z m 115.25767,0.64162 c 6.2239,4.33634 3.43732,10.79994 -0.59474,13.49604 0.87984,-0.71986 1.63856,-3.194 0.77346,-7.865 -3.62812,5.4956 -2.31752,8.64857 -0.99613,8.01003 -3.79284,2.37954 -8.54112,1.40063 -7.98366,-7.68922 -0.9107,-7.37084 3.70984,-5.67487 8.80107,-5.95185 z m -270.161172,0.0103 c 14.10949,6.50955 11.522321,31.357 31.605037,23.66679 -4.66983,11.5002 -19.194908,34.59114 2.122628,32.66123 18.442467,20.3236 13.262017,-46.03721 19.069957,-13.6191 0.2009,16.5981 8.70629,23.21929 19.32046,8.99443 19.09258,-3.08613 -21.16059,-37.29346 8.82011,-27.57219 8.45273,9.25504 4.99878,20.1974 1.2686,18.61731 4.09936,5.49275 0.2554,31.78536 -4.84001,17.48495 1.41857,9.28803 -11.03292,26.27859 -9.91438,13.93258 -3.33035,8.99147 -13.92169,13.35069 -9.64192,19.20912 -0.75865,7.41643 -3.32943,12.38503 -3.90393,3.18907 0.18278,9.61115 -13.09326,26.96628 -16.267626,26.11756 1.430417,-10.48425 -8.56768,-31.21821 -0.0059,-35.28192 3.540676,-4.34876 -11.494027,-7.73865 -9.883624,-17.40877 -7.107751,8.50093 -6.239043,5.3166 0.20362,9.24054 7.047752,17.39361 0.922038,27.65657 6.268272,43.41645 -6.671112,-2.98417 2.274023,9.36078 1.850158,14.30321 8.50263,9.52589 -6.775998,23.67706 -6.340051,6.61984 -0.584134,3.69719 -4.464008,18.17459 -11.49354,7.28198 0.293489,-16.9194 -0.08205,-1.62265 -5.814155,2.25886 -11.182175,-6.16741 -1.587445,-19.91171 -3.455679,-31.26225 0.970725,0.75484 3.146386,-0.12741 1.921938,-3.98744 -1.341261,0.93553 -2.00613,1.78307 -2.245679,2.46981 -0.316042,-1.18451 -0.779865,-2.33755 -1.42827,-3.44542 0.284109,-5.78912 1.777522,-35.31362 -1.312542,-16.69977 -2.049013,-7.74243 -6.58877,-41.88974 -5.897654,-17.02204 3.254894,15.53821 -5.966819,10.16044 -11.533092,5.57391 8.532703,10.48418 17.930271,31.89011 4.188125,40.91443 7.757922,-18.29939 -16.692817,12.62418 2.178294,3.36632 9.759473,-2.21945 11.622973,12.93364 4.529445,5.80536 5.458592,7.829 -6.528691,13.9826 -7.126698,1.56158 -3.2506,-3.7514 1.850071,13.99173 -10.249846,8.12136 -16.47307,0.70183 -12.828307,-20.57766 -9.083793,-27.85199 -10.872088,17.38362 -6.281732,-19.92686 -3.729614,-23.2742 -15.782196,20.53855 8.441023,-20.2326 1.951235,-15.65969 -1.615355,-6.28683 19.017327,-24.18607 7.032945,-20.20085 0.25692,-14.39603 8.51492,-22.1113 7.312739,-33.44348 5.750369,-7.55907 8.640313,-11.63713 6.360559,-17.2784 1.914594,-4.10575 4.46945,-8.06614 8.163841,-10.79918 z M 59.2222,317.88441 c -0.448001,-0.64254 -1.013489,-1.29693 -1.712458,-1.9527 0.619645,0.78199 1.190305,1.42799 1.712458,1.9527 z m 30.362809,4.74625 c 0.07582,-0.47991 0.09563,-0.77837 0.06006,-0.81594 0,0 -0.0015,-0.001 -0.0015,-0.001 0,0 -0.0015,-0.001 -0.0015,-0.001 0,0 -0.0015,0 -0.0015,0 0,0 -0.0015,-0.001 -0.0015,-0.001 0,0 -0.0015,0 -0.0015,0 0,0 -0.0015,0 -0.0015,0 0,0 -0.0015,0 -0.0015,0 0,0 -0.0015,0 -0.0015,0 0,0 -0.0015,0.001 -0.0015,0.001 -0.0045,0.002 -0.01057,0.006 -0.01611,0.0132 -0.01416,0.27564 -0.02409,0.54479 -0.03076,0.80569 z m 37.720961,-69.4051 c 0.61229,-1.6531 0.97849,-3.46261 0.96243,-5.46697 -0.52751,2.24627 -0.83404,4.04981 -0.96243,5.46697 z m -14.0073,-72.35686 c 8.08622,9.2995 1.28912,13.23695 -4.05189,11.99161 0.34003,-0.78277 -0.0146,-2.8531 -2.16218,-6.52756 -0.71457,2.72112 -0.23865,4.78748 0.45852,5.91963 -3.16504,-1.57404 -4.91695,-5.37763 -0.61672,-11.36024 2.10602,0.28458 4.27342,0.34698 6.37227,-0.0234 z m 106.07867,5.77461 c -7.90006,8.32151 2.17484,8.56449 0,0 z m 149.56836,0.26514 c 7.22229,4.48266 -2.27203,2.96767 0,0 z m -81.11544,0.29591 c -2.07495,13.81414 10.25086,18.81296 21.48996,13.78756 -3.86316,13.11814 -19.07588,33.36047 1.7022,36.07735 17.04046,26.90978 11.95099,-43.66143 17.11287,-13.22651 -0.94927,10.27607 4.19576,30.54983 14.10837,13.72604 25.86625,0.19288 -1.02962,-30.51555 4.24379,-36.43332 10.0583,5.68752 21.0351,-0.72179 22.85377,-9.25665 7.11662,7.80514 7.2022,14.65583 4.39028,17.89951 0.5956,6.40069 2.56563,30.62795 -3.53478,17.10114 2.66832,8.28246 -1.29406,30.43063 -4.5441,16.64996 -0.73283,7.44776 -1.80148,35.00386 -6.16572,20.03679 2.92374,18.27101 -0.79503,23.88792 -0.91849,41.69521 -2.87601,-1.75404 -3.15121,-13.91136 -3.06162,-1.42094 -0.76204,8.64736 16.79901,21.08544 4.57192,26.03991 -2.69494,-11.87678 -6.71393,-13.87259 -3.69885,-0.70901 -9.0068,15.42878 -13.48883,-23.4358 -11.32947,-0.93606 -12.51608,10.44434 -16.33577,-12.08751 -12.7343,-21.34494 -6.43038,10.39308 4.3682,-21.94006 1.08255,-23.05007 -4.66627,-12.95881 10.67697,-27.33624 13.04486,-30.8887 8.1685,-7.24196 8.65547,-10.84401 -0.84231,-3.50842 -7.9111,6.28718 -16.73828,22.95522 -16.31889,24.86947 0.65169,0.24111 -6.25414,28.58796 0.89797,10.26596 -0.16121,11.34374 -8.61394,28.77517 -13.32905,32.78427 0.23531,-4.24661 9.36462,-21.59536 4.99236,-18.28038 -4.99614,15.54602 -7.18025,4.26423 -6.19943,-2.78037 -1.71373,-1.49354 -4.57315,-29.08947 1.19829,-8.03639 0.39228,-16.3338 -10.5133,-36.29055 -21.41672,-43.52633 4.04071,12.22577 18.14744,19.35109 14.3867,36.92992 1.43171,8.81012 -4.8727,-4.76822 0.0835,8.7747 3.72111,10.35518 1.66654,19.47645 0.96536,23.01491 5.10253,16.28406 -7.59672,17.14435 -9.83821,11.01745 -0.79734,10.5986 -14.00347,7.22124 -12.0751,-1.73443 -3.64881,5.89569 -9.04225,9.99584 -7.9529,-1.88971 9.2174,-15.45143 -9.15092,9.36571 0.1128,-5.94599 9.30169,-9.98796 8.9675,-31.69761 4.31264,-18.63049 0.94561,-15.1488 -2.95089,-22.83276 -2.46395,-37.06616 -5.95748,10.13742 7.10947,-33.18178 -0.90677,-10.99694 -5.86872,-6.23358 2.87949,-26.01037 -3.97425,-20.27703 -1.5913,-11.33382 9.43215,-25.93549 3.7472,-26.48084 2.43529,-4.57508 3.86052,-9.56833 6.00752,-14.25047 z m 1.11771,135.53763 c 1.02341,-1.65361 1.90969,-3.44841 2.47713,-5.07145 -1.36647,1.82695 -2.14557,3.53162 -2.47713,5.07145 z m 12.0751,1.73443 c 0.0775,-1.0308 0.039,-2.19376 -0.14356,-3.49669 -0.30717,1.32541 -0.21999,2.50295 0.14356,3.49669 z m 31.29302,-17.58602 c 0.40128,-0.64857 0.87054,-1.46316 1.41362,-2.46248 -0.55517,0.63035 -1.02749,1.46994 -1.41362,2.46248 z m 37.88063,-80.01092 c -0.18069,-0.56084 -0.392,-1.05838 -0.63576,-1.47661 0.22099,0.5352 0.43295,1.02691 0.63576,1.47661 z M 258.47822,189.2054 c 5.25929,14.45912 -0.0118,14.24617 5.29266,29.72119 2.44615,13.64842 -7.9894,-3.139 -3.95521,10.33188 0.75074,7.74653 -4.73772,13.41715 1.4605,13.29682 -0.27929,16.19789 12.7209,26.78877 12.57023,40.07797 -2.28075,-5.11151 1.9119,26.07459 -3.46007,17.53329 0.9955,-14.17165 -1.41324,-8.30009 -2.90928,2.37605 -15.21967,9.75621 10.1675,10.52698 1.41655,22.66481 -6.80753,-0.93834 -3.25315,-13.14387 -6.44113,-0.6094 -12.20777,-9.43121 -7.64676,-29.13942 -6.19502,-43.37251 1.31459,-9.40345 7.65729,-29.8791 2.22956,-28.44966 -3.43502,-9.92583 -2.21886,30.73047 -6.9011,22.17699 0.88456,4.71489 2.82373,24.0557 -3.03819,16.36284 -0.23887,12.91179 8.02273,25.34367 6.18624,37.09545 -4.66316,4.73114 -11.20162,-20.17531 -7.05345,-4.09876 1.03599,12.28981 -8.70429,7.48856 -11.61513,0.12158 1.31845,15.33134 -21.28054,-2.0648 -9.97591,-13.90182 6.19077,-17.43753 -6.06753,11.59875 -2.01862,-5.63837 6.33226,-15.64863 -0.25394,-27.58348 7.77857,-43.97311 8.35687,-12.99957 1.24407,-8.34557 -4.46059,-0.0249 -11.92765,7.7415 2.42969,2.78998 -3.32677,14.4995 0.64718,13.54871 -4.74356,1.92424 -1.49565,-3.99183 -6.45863,5.01372 5.45133,31.4234 -4.08852,13.28217 -5.23763,-5.47333 6.4726,16.59113 -3.89368,18.96595 4.88899,-21.75625 -5.85409,13.53418 -5.63397,11.26942 -2.4736,-6.27422 6.35779,-28.63389 1.29496,-23.41923 -3.1423,21.4341 -7.61966,-4.01001 -4.46645,-12.24063 -5.1772,12.96941 -1.00081,-20.26334 -3.63586,-4.43569 -0.97817,-5.52943 -1.71625,-11.87824 2.54744,-8.69999 -5.90959,-7.26323 -16.29318,-24.3547 -13.9736,-10.33042 14.34557,12.67006 4.05436,27.83939 11.68691,42.04386 0.96552,9.28748 -7.2719,0.81754 -0.55666,11.84364 3.22179,7.27023 -0.69919,29.21587 -10.65562,18.56018 3.45285,-20.82202 -4.75005,17.72792 -12.06925,-0.16993 4.71211,-13.0007 -1.35645,-8.81891 -3.03086,1.52935 -12.13286,-6.12439 7.41722,-23.8704 0.73098,-35.60419 -3.91023,-4.84306 -0.19996,-37.12153 -3.70764,-22.95046 -5.51382,-5.80022 0.42077,-32.87293 -4.03724,-28.26801 -5.71756,19.35699 5.579,38.16134 4.02699,57.55413 3.1273,20.91538 -12.38808,2.29492 -16.46978,-5.27215 1.34303,8.25289 2.515,15.14962 -4.29799,3.14805 -8.64544,-8.59517 10.67837,-31.40333 -0.58596,-23.78984 1.62126,-11.93543 17.01447,-13.31561 9.9056,-20.15398 3.37993,-14.43464 4.02722,-23.93326 7.20287,-37.43677 -9.43081,12.73262 6.01078,-20.02243 -3.17881,-13.15326 3.7103,-7.98366 5.04553,-18.78859 8.35721,-4.08558 6.36568,10.27236 30.28591,-7.38103 17.02057,11.55799 -4.27882,9.94186 -11.49617,26.02676 5.49481,23.59794 15.02276,21.51469 14.87875,-12.06751 16.96637,-22.54175 2.36905,-13.88422 4.29734,15.54423 5.7497,21.96752 -0.0102,23.3473 14.24354,-6.98425 25.77331,2.07575 6.24554,-10.13104 -19.44888,-36.82876 -2.75546,-33.3424 10.58864,4.01966 15.17178,-4.87597 16.19144,-13.69967 z m -101.84366,105.856 c -0.15113,-0.92871 -0.30542,-1.87457 -0.44972,-2.81259 -0.87717,-0.27882 -0.57018,0.92179 0.44972,2.81259 z m 79.43082,29.37254 c -0.10515,-1.22277 -0.36253,-2.65408 -0.80129,-4.31264 -0.0494,1.4638 0.25631,2.93336 0.80129,4.31264 z m -29.89404,-129.5389 c -1.09135,6.36146 -7.37417,21.86794 -0.11426,6.09688 13.87361,-11.89417 0.053,25.74125 0.86428,34.09389 -1.8132,11.05375 -12.11956,-10.56771 -18.35069,-5.94453 3.61063,-12.07559 6.86534,-26.44561 17.60067,-34.24624 z m 113.63311,0.10987 c -1.35187,4.46136 -9.76036,35.30492 -2.95176,14.47459 0.66768,-9.68321 11.74464,-18.86268 7.0139,-2.84042 -2.60323,9.89087 -0.88495,27.8355 -6.87474,32.86338 -4.16843,-11.02912 -21.39478,-5.39299 -11.30603,-19.85954 3.40481,-8.56382 5.98836,-19.3092 14.11863,-24.63801 z m 13.7275,0.004 c 8.62804,9.21519 27.74581,37.14438 7.15013,39.68831 -12.83485,18.66594 -8.27182,-19.54911 -11.52577,-26.76357 -4.14789,-9.95222 3.76893,-16.38062 5.54901,-3.28136 5.898,19.97999 0.17167,-2.95046 -1.17337,-9.64338 z m -110.12763,0.0278 c 10.31128,7.83792 19.79196,28.27414 17.02937,37.88649 -9.8122,-5.45905 -19.22177,18.15119 -18.67151,-2.30574 0.91761,-8.84973 -9.32244,-31.80872 -0.29884,-32.3536 3.59369,6.4292 9.91188,28.41413 5.55048,9.45734 0.38296,-4.07768 -5.79939,-9.65926 -3.6095,-12.68449 z m -107.59482,1.63774 c 10.69304,6.17736 27.39236,30.80107 9.47492,34.53043 -10.9646,13.87925 -9.4123,-19.17188 -12.79583,-26.88809 -2.15503,-21.01013 16.80564,28.11501 7.68336,1.73883 -1.29066,-3.20082 -2.85814,-6.27835 -4.36245,-9.38117 z m -12.07364,0.24025 c -5.062523,7.44968 -6.53478,21.69272 -1.71099,6.29171 10.33197,-15.18108 3.0886,17.85117 1.87945,24.00664 0.53759,17.4566 -12.333501,1.03259 -18.908817,1.97321 3.408606,-11.68195 6.484112,-26.73065 18.740357,-32.27156 z m -51.764873,15.94241 c -6.56536,6.34925 -0.372617,16.38292 -1.107459,2.85801 z m 0.792506,5.13298 c -3.640827,6.71148 4.53839,13.48467 0,0 z m 117.888617,7.87379 c -5.59735,8.29386 10.37523,24.66069 1.43559,8.89629 -0.83722,-2.8951 -1.19825,-5.90074 -1.43559,-8.89629 z m 205.8246,0.45852 c 3.68055,16.00701 1.29587,33.93128 12.50138,47.69101 -6.95856,-4.5097 9.23308,25.85902 -6.80881,32.43856 5.14098,-9.46068 4.50143,-22.50899 0.24463,-5.46258 -3.34426,8.01967 -18.79178,10.22963 -1.7608,10.43735 11.55228,3.42181 3.31372,21.84082 0.34132,6.30636 -0.0628,4.05525 -2.09069,14.83877 -7.71411,5.5578 -3.54842,-17.38606 -1.75076,11.04467 -6.44699,-2.50643 -10.24537,-14.93158 -2.19637,-35.29198 -0.95218,-51.05001 0.85311,-15.07714 9.72707,-28.12066 10.59556,-43.41206 z m 4.51772,91.4107 c 0.0142,-0.91777 -0.0722,-1.49137 -0.24024,-1.40923 0.0754,0.49778 0.15572,0.96748 0.24024,1.40923 z m 35.4914,-79.78972 c 9.61259,4.26291 -2.97769,31.04873 7.12963,16.17387 4.91817,10.85914 -8.23173,23.71625 -11.5038,24.86653 19.90679,3.16951 -21.40488,10.81303 -3.99915,12.39152 -11.62531,10.09736 -18.47552,2.51862 -15.26564,-10.00667 -1.50163,-16.03798 22.34519,-23.89527 22.52711,-42.71917 z m -40.16733,11.46278 c -2.4931,6.85024 -12.5783,16.59286 -0.7676,6.4631 l 1.2642,-3.23448 z m -39.81722,0.29884 c -2.32381,8.62859 -19.6491,21.05674 -3.27403,10.05941 2.35282,-2.71491 3.98082,-6.40734 3.27403,-10.05941 z m -196.64705,0.28565 c 2.04559,8.66976 -0.0917,15.78104 -1.3184,24.32306 -0.18492,-1.00364 -0.83026,-2.34389 -2.25447,-3.80286 -0.13215,4.94805 1.40117,6.16272 2.04059,5.38787 -0.50634,4.03206 -0.75207,8.40897 -0.23438,13.42427 -4.60166,-7.62588 -2.02887,21.40052 5.04069,23.17459 10.01133,4.57939 1.61633,25.86216 -0.73537,8.78935 -5.49948,-13.46963 1.17527,21.81293 -10.03158,5.60614 -4.30277,-14.14451 0.0396,-2.63416 -5.11247,3.09678 -16.4313,-3.0566 -9.07764,-23.61713 -11.65761,-32.91026 -1.42802,-17.52909 10.17575,-33.64561 22.281,-45.85257 0.3419,-0.75509 1.17182,-1.24515 1.982,-1.23637 z m 83.06082,3.04697 c -2.71588,8.60814 -15.65069,20.28265 -1.31401,8.55351 1.77961,-2.44888 1.90093,-5.69973 1.31401,-8.55351 z m -105.55277,0.90531 c -3.91737,8.9782 0.19484,12.93238 0,0 z m 86.59414,4.02698 c -0.48888,4.48264 5.28674,2.29591 0,0 z m 11.7206,2.28817 c -5.97294,2.98771 -3.36127,7.48767 0,0 z m 109.5153,0.29297 c -5.78794,1.94013 -4.05749,6.96961 0,0 z m -89.79786,1.31694 c -9.59607,7.22679 -7.26802,13.64197 0,0 z m -124.95379,0.56838 c -8.47806,7.88532 -0.29637,7.09734 0,0 z m 205.3529,9.95687 c 1.08889,11.16753 9.5826,14.23592 1.64215,2.0318 z m -255.729057,0.48195 c 4.584551,10.47638 5.989426,32.18054 2.121163,37.59791 -3.993055,-7.07285 3.283014,-23.69171 -3.363391,-34.2228 z m 78.058217,3.89807 c -0.0299,0.0357 -0.0389,0.0601 -0.0381,0.0718 0,0 0,0.001 0,0.001 0,0 0.001,0.001 0.001,0.001 0,0 0,0.001 0,0.001 0,0 0.001,0 0.001,0 0,0 0,0.001 0,0.001 0,0 0.001,0 0.001,0 0,0 0.001,0.001 0.001,0.001 0,0 0.001,0 0.001,0 0,0 0.001,0 0.001,0 0,0 0.001,0 0.001,0 0,0 0.001,0 0.001,0 0,0 0.001,0 0.001,0 0.0165,-0.005 0.0404,-0.0346 0.0249,-0.0791 z m -33.58411,5.7248 c -5.756146,8.88528 -0.63225,13.23772 0,0 z m 16.01273,7.48413 c -6.19888,3.75717 -1.95201,6.86187 0,0 z m -8.95634,7.43286 c 0.32479,7.08101 4.6996,34.52885 -4.79459,16.79059 -0.17028,-5.95139 2.2428,-11.55135 4.79459,-16.79059 z m 196.85067,2.52401 c -1.89099,4.20019 4.19283,4.64824 0,0 z m -285.31255,2.65145 c 2.821368,7.94771 -1.422775,6.85369 1.828185,9.41926 -9.912545,4.3364 9.640904,1.07751 -3.074808,5.40105 -9.026316,2.56752 -29.9278646,-14.44304 -7.090075,-11.39246 3.045112,-0.45048 5.689307,-1.98949 8.336698,-3.42785 z m 239.50246,0.72952 c -9.65076,6.71336 0.92322,6.64904 0,0 z M 34.503619,306.0393 c -4.93555,3.3873 0.22809,8.3467 0,0 z m 130.852911,3.75891 c 10.12916,-0.26825 5.14507,16.76587 -3.71204,14.54637 0.62148,-10.26309 -1.4148,-7.41975 -2.69686,0.73098 -9.42237,1.89225 -2.762,-14.42476 2.76718,-14.59764 1.38376,-0.43855 2.59387,-0.65196 3.64172,-0.67971 z"
     style="fill:#9d302e;stroke-width:0"
     id="path2" />
</svg>
