<?xml version="1.0" encoding="UTF-8" standalone="no"?>
<svg
   viewBox="0 0 1728 999"
   version="1.1"
   id="svg64"
   xmlns:xlink="http://www.w3.org/1999/xlink"
   xmlns="http://www.w3.org/2000/svg"
   xmlns:svg="http://www.w3.org/2000/svg">
  <defs
     id="defs63">
    <g
       id="t00002s" />
    <g
       id="t00002f">
      <polygon
         points="0,0 -1.5,-0.8660254037844386 -1,-1.7320508075688772 1,-1.7320508075688772 1.5,-0.8660254037844386 3,-1.7320508075688772 4.5,-0.8660254037844386 4,0 3,0 3,1.7320508075688772 1.5,2.598076211353316 1,1.7320508075688772 0,1.7320508075688772"
         stroke="rgb(0,0,0)"
         stroke-width="0.09999999999999998"
         fill="rgb(148,205,235)"
         id="polygon1" />
    </g>
    <g
       id="t00003s" />
    <g
       id="t00003f">
      <polygon
         points="0,0 -1.5,-0.8660254037844386 -1,-1.7320508075688772 1,-1.7320508075688772 1.5,-0.8660254037844386 3,-1.7320508075688772 4.5,-0.8660254037844386 4,0 3,0 3,1.7320508075688772 1.5,2.598076211353316 1,1.7320508075688772 0,1.7320508075688772"
         stroke="rgb(0,0,0)"
         stroke-width="0.1"
         fill="rgb(0,137,212)"
         id="polygon2" />
    </g>
    <g
       id="t00001s">
      <use
         xlink:href="#t00002s"
         transform="matrix(-0.24999999999999997 -0.4330127018922194 0.4330127018922194 -0.24999999999999997 1 1.7320508075688774)"
         id="use2" />
      <use
         xlink:href="#t00002s"
         transform="matrix(-0.25 -0.4330127018922193 0.4330127018922193 -0.25 4 1.7320508075688772)"
         id="use3" />
      <use
         xlink:href="#t00002s"
         transform="matrix(-0.25000000000000006 0.43301270189221935 -0.43301270189221935 -0.25000000000000006 2.5 2.598076211353315)"
         id="use4" />
      <use
         xlink:href="#t00003s"
         transform="matrix(-0.25 0.4330127018922193 0.4330127018922193 0.25 2.5 0.8660254037844386)"
         id="use5" />
      <polygon
         points="0,0 4,0 4.5,0.8660254037844386 2.5,4.330127018922193 1.5,4.330127018922193 -0.5,0.8660254037844386"
         fill="none"
         stroke="rgb(0,0,0)"
         stroke-width="0.1"
         id="polygon5" />
    </g>
    <g
       id="t00001f">
      <use
         xlink:href="#t00002f"
         transform="matrix(-0.24999999999999997 -0.4330127018922194 0.4330127018922194 -0.24999999999999997 1 1.7320508075688774)"
         id="use6" />
      <use
         xlink:href="#t00002f"
         transform="matrix(-0.25 -0.4330127018922193 0.4330127018922193 -0.25 4 1.7320508075688772)"
         id="use7" />
      <use
         xlink:href="#t00002f"
         transform="matrix(-0.25000000000000006 0.43301270189221935 -0.43301270189221935 -0.25000000000000006 2.5 2.598076211353315)"
         id="use8" />
      <use
         xlink:href="#t00003f"
         transform="matrix(-0.25 0.4330127018922193 0.4330127018922193 0.25 2.5 0.8660254037844386)"
         id="use9" />
    </g>
    <g
       id="t00005s" />
    <g
       id="t00005f">
      <polygon
         points="0,0 -1.5,-0.8660254037844386 -1,-1.7320508075688772 1,-1.7320508075688772 1.5,-0.8660254037844386 3,-1.7320508075688772 4.5,-0.8660254037844386 4,0 3,0 3,1.7320508075688772 1.5,2.598076211353316 1,1.7320508075688772 0,1.7320508075688772"
         stroke="rgb(0,0,0)"
         stroke-width="0.10000000000000007"
         fill="rgb(251,251,251)"
         id="polygon9" />
    </g>
    <g
       id="t00004s">
      <use
         xlink:href="#t00005s"
         transform="matrix(0.5 0 0 0.5 0.5 0.8660254037844386)"
         id="use10" />
      <polygon
         points="0,0 3,0 1.5,2.598076211353316"
         fill="none"
         stroke="rgb(0,0,0)"
         stroke-width="0.10000000000000007"
         id="polygon10" />
    </g>
    <g
       id="t00004f">
      <use
         xlink:href="#t00005f"
         transform="matrix(0.5 0 0 0.5 0.5 0.8660254037844386)"
         id="use11" />
    </g>
    <g
       id="t00007s" />
    <g
       id="t00007f">
      <polygon
         points="0,0 -1.5,-0.8660254037844386 -1,-1.7320508075688772 1,-1.7320508075688772 1.5,-0.8660254037844386 3,-1.7320508075688772 4.5,-0.8660254037844386 4,0 3,0 3,1.7320508075688772 1.5,2.598076211353316 1,1.7320508075688772 0,1.7320508075688772"
         stroke="rgb(0,0,0)"
         stroke-width="0.09999999999999998"
         fill="rgb(250,250,250)"
         id="polygon11" />
    </g>
    <g
       id="t00006s">
      <use
         xlink:href="#t00007s"
         transform="matrix(0.5 0 0 0.5 1.5 0.8660254037844386)"
         id="use12" />
      <use
         xlink:href="#t00007s"
         transform="matrix(0.25 -0.4330127018922193 0.4330127018922193 0.25 0 1.7320508075688772)"
         id="use13" />
      <polygon
         points="0,0 4,0 3,1.7320508075688772 -1,1.7320508075688772"
         fill="none"
         stroke="rgb(0,0,0)"
         stroke-width="0.09999999999999998"
         id="polygon13" />
    </g>
    <g
       id="t00006f">
      <use
         xlink:href="#t00007f"
         transform="matrix(0.5 0 0 0.5 1.5 0.8660254037844386)"
         id="use14" />
      <use
         xlink:href="#t00007f"
         transform="matrix(0.25 -0.4330127018922193 0.4330127018922193 0.25 0 1.7320508075688772)"
         id="use15" />
    </g>
    <g
       id="t00009s" />
    <g
       id="t00009f">
      <polygon
         points="0,0 -1.5,-0.8660254037844386 -1,-1.7320508075688772 1,-1.7320508075688772 1.5,-0.8660254037844386 3,-1.7320508075688772 4.5,-0.8660254037844386 4,0 3,0 3,1.7320508075688772 1.5,2.598076211353316 1,1.7320508075688772 0,1.7320508075688772"
         stroke="rgb(0,0,0)"
         stroke-width="0.1"
         fill="rgb(191,191,191)"
         id="polygon15" />
    </g>
    <g
       id="t00008s">
      <use
         xlink:href="#t00009s"
         transform="matrix(0.5 0 0 0.5 1.5 0.8660254037844386)"
         id="use16" />
      <use
         xlink:href="#t00009s"
         transform="matrix(0.25 -0.4330127018922193 0.4330127018922193 0.25 0 1.7320508075688772)"
         id="use17" />
      <polygon
         points="0,0 3,0 3.5,0.8660254037844386 3,1.7320508075688772 -1,1.7320508075688772"
         fill="none"
         stroke="rgb(0,0,0)"
         stroke-width="0.1"
         id="polygon17" />
    </g>
    <g
       id="t00008f">
      <use
         xlink:href="#t00009f"
         transform="matrix(0.5 0 0 0.5 1.5 0.8660254037844386)"
         id="use18" />
      <use
         xlink:href="#t00009f"
         transform="matrix(0.25 -0.4330127018922193 0.4330127018922193 0.25 0 1.7320508075688772)"
         id="use19" />
    </g>
    <g
       id="t00000s">
      <use
         xlink:href="#t00001s"
         transform="matrix(1 0 0 1 -4.499999999999997 -2.5980762113533156)"
         id="use20" />
      <use
         xlink:href="#t00001s"
         transform="matrix(1 2.7755575615628914e-16 -2.7755575615628914e-16 1 2.6645352591003757e-15 -3.4641016151377553)"
         id="use21" />
      <use
         xlink:href="#t00001s"
         transform="matrix(-0.49999999999999994 -0.8660254037844388 0.8660254037844388 -0.49999999999999994 -2.6645352591003757e-15 5.196152422706632)"
         id="use22" />
      <use
         xlink:href="#t00004s"
         transform="matrix(-0.9999999999999993 0 0 -0.9999999999999993 1.5000000000000018 0.866025403784437)"
         id="use23" />
      <use
         xlink:href="#t00006s"
         transform="matrix(-0.5 -0.8660254037844388 0.8660254037844388 -0.5 -2.0000000000000027 5.196152422706632)"
         id="use24" />
      <use
         xlink:href="#t00008s"
         transform="matrix(-0.5 -0.8660254037844386 0.8660254037844386 -0.5 -4.999999999999997 1.7320508075688772)"
         id="use25" />
      <use
         xlink:href="#t00006s"
         transform="matrix(1 0 0 1 -3.4999999999999973 -4.330127018922193)"
         id="use26" />
      <use
         xlink:href="#t00008s"
         transform="matrix(1 2.9605947323337506e-16 -2.9605947323337506e-16 1 1.0000000000000027 -5.196152422706632)"
         id="use27" />
      <use
         xlink:href="#t00006s"
         transform="matrix(0.5000000000000004 -0.8660254037844384 0.8660254037844384 0.5000000000000004 2.500000000000001 0.8660254037844379)"
         id="use28" />
      <use
         xlink:href="#t00008s"
         transform="matrix(-0.5000000000000001 0.8660254037844387 -0.8660254037844387 -0.5000000000000001 3.9999999999999973 3.464101615137754)"
         id="use29" />
      <polygon
         points="-5.280821917808216,-3.3336046364853074 4.500000000000003,-4.330127018922193 5.527397260273976,-2.9065236154409217 1.4999999999999973,6.0621778264910695 -0.24657534246575796,6.240128251926228 -5.999999999999997,-1.7320508075688772"
         fill="none"
         stroke="rgb(0,0,0)"
         stroke-width="0.2"
         id="polygon29" />
    </g>
    <g
       id="t00000f">
      <use
         xlink:href="#t00001f"
         transform="matrix(1 0 0 1 -4.499999999999997 -2.5980762113533156)"
         id="use30" />
      <use
         xlink:href="#t00001f"
         transform="matrix(1 2.7755575615628914e-16 -2.7755575615628914e-16 1 2.6645352591003757e-15 -3.4641016151377553)"
         id="use31" />
      <use
         xlink:href="#t00001f"
         transform="matrix(-0.49999999999999994 -0.8660254037844388 0.8660254037844388 -0.49999999999999994 -2.6645352591003757e-15 5.196152422706632)"
         id="use32" />
      <use
         xlink:href="#t00004f"
         transform="matrix(-0.9999999999999993 0 0 -0.9999999999999993 1.5000000000000018 0.866025403784437)"
         id="use33" />
      <use
         xlink:href="#t00006f"
         transform="matrix(-0.5 -0.8660254037844388 0.8660254037844388 -0.5 -2.0000000000000027 5.196152422706632)"
         id="use34" />
      <use
         xlink:href="#t00008f"
         transform="matrix(-0.5 -0.8660254037844386 0.8660254037844386 -0.5 -4.999999999999997 1.7320508075688772)"
         id="use35" />
      <use
         xlink:href="#t00006f"
         transform="matrix(1 0 0 1 -3.4999999999999973 -4.330127018922193)"
         id="use36" />
      <use
         xlink:href="#t00008f"
         transform="matrix(1 2.9605947323337506e-16 -2.9605947323337506e-16 1 1.0000000000000027 -5.196152422706632)"
         id="use37" />
      <use
         xlink:href="#t00006f"
         transform="matrix(0.5000000000000004 -0.8660254037844384 0.8660254037844384 0.5000000000000004 2.500000000000001 0.8660254037844379)"
         id="use38" />
      <use
         xlink:href="#t00008f"
         transform="matrix(-0.5000000000000001 0.8660254037844387 -0.8660254037844387 -0.5000000000000001 3.9999999999999973 3.464101615137754)"
         id="use39" />
    </g>
    <g
       id="t00010s">
      <use
         xlink:href="#t00001s"
         transform="matrix(0.5000000000000007 -0.8660254037844384 0.8660254037844384 0.5000000000000007 -2.500000000000001 0.8660254037844402)"
         id="use40" />
      <polygon
         points="4.253424657534241,1.9100012330040368 -3.7808219178082165,2.7285731900057613 -0.4726027397260246,-4.638574423009797"
         fill="none"
         stroke="rgb(0,0,0)"
         stroke-width="0.2"
         id="polygon40" />
    </g>
    <g
       id="t00010f">
      <use
         xlink:href="#t00001f"
         transform="matrix(0.5000000000000007 -0.8660254037844384 0.8660254037844384 0.5000000000000007 -2.500000000000001 0.8660254037844402)"
         id="use41" />
    </g>
    <g
       id="t00011s">
      <use
         xlink:href="#t00008s"
         transform="matrix(0.5 -0.8660254037844387 0.8660254037844387 0.5 -6 8.881784197001252e-16)"
         id="use42" />
      <use
         xlink:href="#t00001s"
         transform="matrix(0.5000000000000001 0.8660254037844387 -0.8660254037844387 0.5000000000000001 -2 -1.7320508075688767)"
         id="use43" />
      <use
         xlink:href="#t00006s"
         transform="matrix(0.5 0.8660254037844387 -0.8660254037844387 0.5 0 -1.7320508075688767)"
         id="use44" />
      <use
         xlink:href="#t00001s"
         transform="matrix(-0.5 0.8660254037844388 -0.8660254037844388 -0.5 5 -1.7320508075688767)"
         id="use45" />
      <use
         xlink:href="#t00008s"
         transform="matrix(-0.5 0.8660254037844388 -0.8660254037844388 -0.5 6 8.881784197001252e-16)"
         id="use46" />
      <polygon
         points="-3.5,-2.598076211353316 6.280821917808218,-3.5945985937902014 3.5,2.5980762113533173 -6.280821917808218,3.594598593790203"
         fill="none"
         stroke="rgb(0,0,0)"
         stroke-width="0.2"
         id="polygon46" />
    </g>
    <g
       id="t00011f">
      <use
         xlink:href="#t00008f"
         transform="matrix(0.5 -0.8660254037844387 0.8660254037844387 0.5 -6 8.881784197001252e-16)"
         id="use47" />
      <use
         xlink:href="#t00001f"
         transform="matrix(0.5000000000000001 0.8660254037844387 -0.8660254037844387 0.5000000000000001 -2 -1.7320508075688767)"
         id="use48" />
      <use
         xlink:href="#t00006f"
         transform="matrix(0.5 0.8660254037844387 -0.8660254037844387 0.5 0 -1.7320508075688767)"
         id="use49" />
      <use
         xlink:href="#t00001f"
         transform="matrix(-0.5 0.8660254037844388 -0.8660254037844388 -0.5 5 -1.7320508075688767)"
         id="use50" />
      <use
         xlink:href="#t00008f"
         transform="matrix(-0.5 0.8660254037844388 -0.8660254037844388 -0.5 6 8.881784197001252e-16)"
         id="use51" />
    </g>
    <g
       id="t00012s">
      <use
         xlink:href="#t00008s"
         transform="matrix(0.5 -0.8660254037844386 0.8660254037844386 0.5 -6.943835616438356 -0.026099395730489583)"
         id="use52" />
      <use
         xlink:href="#t00001s"
         transform="matrix(0.49999999999999994 0.8660254037844388 -0.8660254037844388 0.49999999999999994 -2.9438356164383563 -1.7581502032993672)"
         id="use53" />
      <use
         xlink:href="#t00006s"
         transform="matrix(0.5 0.8660254037844388 -0.8660254037844388 0.5 -0.9438356164383563 -1.7581502032993672)"
         id="use54" />
      <use
         xlink:href="#t00001s"
         transform="matrix(-0.5000000000000002 0.8660254037844388 -0.8660254037844388 -0.5000000000000002 4.056164383561644 -1.7581502032993672)"
         id="use55" />
      <use
         xlink:href="#t00008s"
         transform="matrix(1 0 0 1 0.5561643835616437 -4.356226414652683)"
         id="use56" />
      <use
         xlink:href="#t00008s"
         transform="matrix(-0.5 0.8660254037844388 -0.8660254037844388 -0.5 5.056164383561644 -0.026099395730489583)"
         id="use57" />
      <polygon
         points="-4.443835616438356,-2.6241756070838047 4.056164383561644,-3.490201010868244 5.056164383561644,-0.026099395730489583 2.5561643835616437,2.5719768156228273 -7.224657534246575,3.5684991980597127"
         fill="none"
         stroke="rgb(0,0,0)"
         stroke-width="0.2"
         id="polygon57" />
    </g>
    <g
       id="t00012f">
      <use
         xlink:href="#t00008f"
         transform="matrix(0.5 -0.8660254037844386 0.8660254037844386 0.5 -6.943835616438356 -0.026099395730489583)"
         id="use58" />
      <use
         xlink:href="#t00001f"
         transform="matrix(0.49999999999999994 0.8660254037844388 -0.8660254037844388 0.49999999999999994 -2.9438356164383563 -1.7581502032993672)"
         id="use59" />
      <use
         xlink:href="#t00006f"
         transform="matrix(0.5 0.8660254037844388 -0.8660254037844388 0.5 -0.9438356164383563 -1.7581502032993672)"
         id="use60" />
      <use
         xlink:href="#t00001f"
         transform="matrix(-0.5000000000000002 0.8660254037844388 -0.8660254037844388 -0.5000000000000002 4.056164383561644 -1.7581502032993672)"
         id="use61" />
      <use
         xlink:href="#t00008f"
         transform="matrix(1 0 0 1 0.5561643835616437 -4.356226414652683)"
         id="use62" />
      <use
         xlink:href="#t00008f"
         transform="matrix(-0.5 0.8660254037844388 -0.8660254037844388 -0.5 5.056164383561644 -0.026099395730489583)"
         id="use63" />
    </g>
  </defs>
  <path
     d="m 844.29297,414.36328 -5.11719,8.84766 L 824,414.44141 l -14.31641,8.26171 4.60938,7.96875 h 10.21484 v 17.53907 l 14.31641,8.26172 4.88281,-8.47657 h 9.78516 v -17.10937 l 14.82422,-8.55469 -4.58985,-7.96875 z"
     style="baseline-shift:baseline;display:inline;overflow:visible;vector-effect:none;fill:#94cdeb;enable-background:accumulate;stop-color:#000000;stop-opacity:1"
     id="path87" />
  <path
     d="m 824,413.28906 -15.68359,9.04297 5.39062,9.35547 h 9.78516 v 17.10937 l 14.83203,8.55079 5.39648,-9.34766 9.78125,0.01 0.004,-17.11524 14.81055,-8.5625 -14.82422,8.55469 v 17.10937 h -9.78516 l -4.88281,8.47657 -14.31641,-8.26172 v -17.53907 h -10.21484 l -4.60938,-7.96875 14.31641,-8.26171 15.17578,8.76953 5.11719,-8.84766 h 19.43359 l 4.58985,7.96875 0.86328,-0.49805 0.002,0.002 -4.88867,-8.46875 h -20.58594 l -4.88281,8.47656 z"
     style="baseline-shift:baseline;display:inline;overflow:visible;vector-effect:none;enable-background:accumulate;stop-color:#000000;stop-opacity:1"
     id="path86" />
  <path
     d="m 874.29297,466.32422 -5.11719,8.84765 -7.2832,-4.20898 -7.89258,-4.55664 -13.65625,7.87695 -0.66016,0.38086 4.60938,7.96875 h 10.21484 v 17.53906 l 14.31641,8.26172 4.88281,-8.47656 h 9.78516 v -17.10937 l 14.82422,-8.55469 -4.58985,-7.96875 z"
     style="baseline-shift:baseline;display:inline;overflow:visible;vector-effect:none;fill:#94cdeb;enable-background:accumulate;stop-color:#000000;stop-opacity:1"
     id="path85" />
  <path
     d="m 894.57227,465.8125 -0.29297,0.50781 H 883.5 v -0.008 l -9.2207,0.008 -5.10743,8.84571 -7.27929,-4.20313 7.2832,4.20898 5.11719,-8.84765 h 19.43359 l 4.58985,7.96875 -14.82422,8.55469 v 17.10937 h -9.78516 l -4.88281,8.47656 -14.31641,-8.26172 v -17.53906 h -10.21484 l -4.60938,-7.96875 -0.86523,0.5 4.88867,8.48438 h 9.78516 v 17.10937 l 15.68359,9.04297 5.11719,-8.84766 h 10.21484 v -17.51953 l 15.17578,-8.76953 z"
     style="baseline-shift:baseline;display:inline;overflow:visible;vector-effect:none;enable-background:accumulate;stop-color:#000000;stop-opacity:1"
     id="path84" />
  <path
     d="m 913.5,414.35937 -9.20703,0.008 -5.10742,8.8457 -15.18946,-8.76953 -14.31054,8.26562 4.89843,8.46875 0.002,0.002 -4.89258,8.47461 10.8457,6.26172 3.96875,2.29101 0.004,0.002 -0.006,9.32227 -0.002,7.79102 9.19531,0.01 9.7168,-16.83008 -5.10352,-8.85547 15.18359,-8.75781 z"
     style="baseline-shift:baseline;display:inline;overflow:visible;vector-effect:none;fill:#94cdeb;enable-background:accumulate;stop-color:#000000;stop-opacity:1"
     id="path83" />
  <path
     d="m 883.99609,413.27148 -14.81445,8.56446 0.50391,0.87304 14.31054,-8.26562 15.18946,8.76953 5.10742,-8.8457 9.20703,-0.008 -0.004,16.5293 -15.18359,8.75781 5.10352,8.85547 -9.7168,16.83008 -9.19531,-0.01 0.002,-7.79102 -0.006,8.78125 h -1 v 0.008 h 10.7793 l 10.29297,-17.82812 -4.89844,-8.4668 14.82031,-8.56055 0.01,-18.10351 -10.79688,-0.01 -4.89258,8.47461 z"
     style="baseline-shift:baseline;display:inline;overflow:visible;vector-effect:none;enable-background:accumulate;stop-color:#000000;stop-opacity:1"
     id="path82" />
  <path
     d="m 868.81641,423.20312 -14.3125,8.26758 0.008,17.52735 -10.2207,0.008 -9.7168,16.83008 4.60547,7.95898 14.82031,-8.56055 14.81641,8.55469 4.89257,-8.47461 9.78321,0.01 0.004,-16.5293 -15.18945,-8.76953 5.10742,-8.8457 z"
     style="baseline-shift:baseline;display:inline;overflow:visible;vector-effect:none;fill:#0089d4;enable-background:accumulate;stop-color:#000000;stop-opacity:1"
     id="path81" />
  <path
     d="m 869.17969,421.83398 -15.67383,9.06055 -0.004,17.11524 -9.78125,-0.01 -10.29297,17.82812 5.38868,9.33594 15.18359,-8.75781 15.17187,8.75977 5.10743,-8.84571 10.2207,-0.008 0.0117,-18.10352 -14.81836,-8.55468 4.89258,-8.47461 z m -0.36328,1.36914 4.59765,7.97657 -5.10742,8.8457 15.18945,8.76953 -0.004,16.5293 -9.78321,-0.01 -4.89257,8.47461 L 854,465.23437 l -14.82031,8.56055 -4.60547,-7.95898 9.7168,-16.83008 10.2207,-0.008 -0.008,-17.52735 z"
     style="baseline-shift:baseline;display:inline;overflow:visible;vector-effect:none;enable-background:accumulate;stop-color:#000000;stop-opacity:1"
     id="path80" />
</svg>
